<svg id="Search" xmlns="http://www.w3.org/2000/svg" viewBox="0 0 683 768"><defs><style>.cls-1{fill:#fff;}</style></defs><circle cx="268.14" cy="330.14" r="224.15"/><path d="M638.5,664.4s12,10.1-6.25,28.35-29.85,7.75-29.85,7.75L434.24,532.33A28,28,0,0,1,426.07,514l-.22-4.18,21.58-21.57,4.12.1a28,28,0,0,1,19.09,8.2Z"/><rect x="421.3" y="479.65" width="31.07" height="38.38" transform="translate(-224.79 455) rotate(-45)"/><path class="cls-1" d="M268.14,515.31a185.19,185.19,0,1,1,130.93-54.24A183.92,183.92,0,0,1,268.14,515.31Z"/><path d="M268.14,145.37a184.17,184.17,0,1,1-69.53,13.53,184.11,184.11,0,0,1,69.53-13.53m0-.8a185,185,0,0,0-131.22,54.35c-72.46,72.47-72.46,190,0,262.43a185.54,185.54,0,0,0,262.43,0c72.47-72.46,72.47-190,0-262.43a185,185,0,0,0-131.21-54.35Z"/></svg>